# xmcd CD database file
#
# Track frame offsets:
#	150
#	28232
#	57977
#	77935
#	115665
#	139135
#	168927
#	202827
#	234047
#	263952
#	298570
#
# Disc length: 4394 seconds
#
# Revision: 9
# Processed by: cddbd v1.4PL0 Copyright (c) Steve Scherf et al.
# Submitted via: CDex 1.50Beta5
#
DISCID=9311280b
DTITLE=NG La Banda - La Bruja
DYEAR=1900
DGENRE=Jazz
TTITLE0=Te Pongo Mal, Camará
TTITLE1=Un Sueño Terrible, Camará
TTITLE2=La Cucaracha, Camará
TTITLE3=Tremenda Carretera, Camará
TTITLE4=Mañana, Camará
TTITLE5=La Película del Sábado, Camará
TTITLE6=Marinero Soy, Camará
TTITLE7=La Bruja, Camará
TTITLE8=All Of Me, Camará
TTITLE9=Picadillo de Soya, Camará
TTITLE10=Ya Llegó la Hora, Camará
EXTD=
EXTT0=
EXTT1=
EXTT2=
EXTT3=
EXTT4=
EXTT5=
EXTT6=
EXTT7=
EXTT8=
EXTT9=
EXTT10=
PLAYORDER=
